ffmpeg started on 2026-03-28 at 16:13:10
Report written to "D:\Convert\FFMetrics\reports\ssim_report-6.txt"
Log level: 32
Command line:
ffmpeg -hide_banner -nostdin -r 24000/1001 -i "F:\\\xc0\xed\xe8\xec\xe5\\\xce\xed\xe3\xee\xe8\xed\xe3\xe8\\!_40_\xce\xf1\xe5\xed\xfc_2025\\JamClub\\\xcc\xeb\xe0\xe4\xf8\xe0\xff \xf1\xe5\xf1\xf2\xf0\xe0 \xec\xee\xe5\xe3\xee \xe4\xf0\xf3\xe3\xe0 \xe4\xee\xf1\xe0\xe6\xe4\xe0\xe5\xf2\\JamClub_Tomodachi_no_Imouto_ga_Ore_ni_dake_Uzai_09_1080p_HEVC.mkv" -r 24000/1001 -i "F:\\\xc0\xed\xe8\xec\xe5\\\xce\xed\xe3\xee\xe8\xed\xe3\xe8\\!_40_\xce\xf1\xe5\xed\xfc_2025\\JamClub\\\xcc\xeb\xe0\xe4\xf8\xe0\xff \xf1\xe5\xf1\xf2\xf0\xe0 \xec\xee\xe5\xe3\xee \xe4\xf0\xf3\xe3\xe0 \xe4\xee\xf1\xe0\xe6\xe4\xe0\xe5\xf2\\JamClub_Tomodachi_no_Imouto_ga_Ore_ni_dake_Uzai_09_1080p.mp4" -lavfi "[0:v]settb=AVTB,setpts=PTS-STARTPTS,format=pix_fmts=yuv420p10le,fps=24000/1001,scale=1920:1080:flags=lanczos:param0=3:out_range=limited:out_color_matrix=bt709:out_chroma_loc=left,setsar=1/1,setdar=(1920/1080)*(1/1),colorspace=format=yuv420p10:range=tv:primaries=bt709:trc=bt709:space=bt709:fast=0[main];[1:v]settb=AVTB,setpts=PTS-STARTPTS,format=pix_fmts=yuv420p,fps=24000/1001,scale=1920:1080:flags=lanczos:param0=3:out_range=limited:out_color_matrix=bt709:out_chroma_loc=left,setsar=1/1,setdar=(1920/1080)*(1/1),colorspace=format=yuv420p:range=tv:primaries=bt709:trc=bt709:space=bt709:fast=0[ref];[main][ref]ssim=eof_action=endall:stats_file='D\\:/Convert/FFMetrics/logs/ssim_logfile-6.txt'" -f null -
Input #0, matroska,webm, from 'F:\Аниме\Онгоинги\!_40_Осень_2025\JamClub\Младшая сестра моего друга досаждает\JamClub_Tomodachi_no_Imouto_ga_Ore_ni_dake_Uzai_09_1080p_HEVC.mkv':
  Metadata:
    COMPATIBLE_BRANDS: isomiso2avc1mp41
    MAJOR_BRAND     : isom
    MINOR_VERSION   : 512
    ENCODER         : Lavf61.7.100
  Duration: 00:23:49.44, start: -0.021000, bitrate: 965 kb/s
  Stream #0:0: Video: hevc (Main 10), yuv420p10le(tv, bt709, progressive), 1920x1080 [SAR 1:1 DAR 16:9], 23.98 fps, 23.98 tbr, 1k tbn (default)
      Metadata:
        HANDLER_NAME    : VideoHandler
        VENDOR_ID       : [0][0][0][0]
        ENCODER         : Lavc61.19.100 libx265
        BPS             : 770304
        DURATION        : 00:23:49.344708333
        NUMBER_OF_FRAMES: 34270
        NUMBER_OF_BYTES : 137628756
        _STATISTICS_WRITING_APP: mkvpropedit v94.0 ('Initiate') 64-bit
        _STATISTICS_WRITING_DATE_UTC: 2026-03-28 11:12:19
        _STATISTICS_TAGS: BPS DURATION NUMBER_OF_FRAMES NUMBER_OF_BYTES
  Stream #0:1(eng): Audio: aac (LC), 48000 Hz, stereo, fltp (default)
      Metadata:
        HANDLER_NAME    : SoundHandler
        VENDOR_ID       : [0][0][0][0]
        ENCODER         : Lavc61.19.100 aac
        BPS             : 191426
        DURATION        : 00:23:49.421000000
        NUMBER_OF_FRAMES: 67005
        NUMBER_OF_BYTES : 34203556
        _STATISTICS_WRITING_APP: mkvpropedit v94.0 ('Initiate') 64-bit
        _STATISTICS_WRITING_DATE_UTC: 2026-03-28 11:12:19
        _STATISTICS_TAGS: BPS DURATION NUMBER_OF_FRAMES NUMBER_OF_BYTES
Input #1, mov,mp4,m4a,3gp,3g2,mj2, from 'F:\Аниме\Онгоинги\!_40_Осень_2025\JamClub\Младшая сестра моего друга досаждает\JamClub_Tomodachi_no_Imouto_ga_Ore_ni_dake_Uzai_09_1080p.mp4':
  Metadata:
    major_brand     : isom
    minor_version   : 512
    compatible_brands: isomiso2avc1mp41
    encoder         : Lavf60.16.100
  Duration: 00:23:49.42, start: 0.000000, bitrate: 3477 kb/s
  Stream #1:0[0x1](und): Video: h264 (High) (avc1 / 0x31637661), yuv420p(tv, bt709, progressive), 1920x1080 [SAR 1:1 DAR 16:9], 3279 kb/s, 23.98 fps, 23.98 tbr, 90k tbn (default)
      Metadata:
        handler_name    : VideoHandler
        vendor_id       : [0][0][0][0]
  Stream #1:1[0x2](eng): Audio: aac (LC) (mp4a / 0x6134706D), 48000 Hz, stereo, fltp, 191 kb/s (default)
      Metadata:
        handler_name    : SoundHandler
        vendor_id       : [0][0][0][0]
Stream mapping:
  Stream #0:0 (hevc) -> settb:default
  Stream #1:0 (h264) -> settb:default
  ssim:default -> Stream #0:0 (wrapped_avframe)
  Stream #0:1 -> #0:1 (aac (native) -> pcm_s16le (native))
Output #0, null, to 'pipe:':
  Metadata:
    COMPATIBLE_BRANDS: isomiso2avc1mp41
    MAJOR_BRAND     : isom
    MINOR_VERSION   : 512
    encoder         : Lavf61.7.100
  Stream #0:0: Video: wrapped_avframe, yuv420p10le(tv, bt709, progressive), 1920x1080 [SAR 1:1 DAR 16:9], q=2-31, 200 kb/s, 23.98 fps, 23.98 tbn
      Metadata:
        encoder         : Lavc61.19.100 wrapped_avframe
  Stream #0:1(eng): Audio: pcm_s16le, 48000 Hz, stereo, s16, 1536 kb/s (default)
      Metadata:
        HANDLER_NAME    : SoundHandler
        VENDOR_ID       : [0][0][0][0]
        _STATISTICS_TAGS: BPS DURATION NUMBER_OF_FRAMES NUMBER_OF_BYTES
        BPS             : 191426
        DURATION        : 00:23:49.421000000
        NUMBER_OF_FRAMES: 67005
        NUMBER_OF_BYTES : 34203556
        _STATISTICS_WRITING_APP: mkvpropedit v94.0 ('Initiate') 64-bit
        _STATISTICS_WRITING_DATE_UTC: 2026-03-28 11:12:19
        encoder         : Lavc61.19.100 pcm_s16le
frame=  104 fps=0.0 q=-0.0 size=N/A time=00:00:04.33 bitrate=N/A speed=8.48x    frame=  245 fps=239 q=-0.0 size=N/A time=00:00:10.21 bitrate=N/A speed=9.99x    frame=  402 fps=259 q=-0.0 size=N/A time=00:00:16.76 bitrate=N/A speed=10.8x    frame=  577 fps=278 q=-0.0 size=N/A time=00:00:24.06 bitrate=N/A speed=11.6x    frame=  772 fps=298 q=-0.0 size=N/A time=00:00:32.19 bitrate=N/A speed=12.4x    frame=  966 fps=312 q=-0.0 size=N/A time=00:00:40.29 bitrate=N/A speed=  13x    frame= 1165 fps=321 q=-0.0 size=N/A time=00:00:48.59 bitrate=N/A speed=13.4x    frame= 1363 fps=329 q=-0.0 size=N/A time=00:00:56.84 bitrate=N/A speed=13.7x    frame= 1555 fps=334 q=-0.0 size=N/A time=00:01:04.85 bitrate=N/A speed=13.9x    frame= 1746 fps=338 q=-0.0 size=N/A time=00:01:12.82 bitrate=N/A speed=14.1x    frame= 1943 fps=342 q=-0.0 size=N/A time=00:01:21.03 bitrate=N/A speed=14.2x    frame= 2112 fps=341 q=-0.0 size=N/A time=00:01:28.08 bitrate=N/A speed=14.2x    frame= 2244 fps=334 q=-0.0 size=N/A time=00:01:33.59 bitrate=N/A speed=13.9x    frame= 2398 fps=332 q=-0.0 size=N/A time=00:01:40.01 bitrate=N/A speed=13.8x    frame= 2564 fps=331 q=-0.0 size=N/A time=00:01:46.94 bitrate=N/A speed=13.8x    frame= 2726 fps=330 q=-0.0 size=N/A time=00:01:53.69 bitrate=N/A speed=13.8x    frame= 2903 fps=331 q=-0.0 size=N/A time=00:02:01.07 bitrate=N/A speed=13.8x    frame= 3067 fps=330 q=-0.0 size=N/A time=00:02:07.91 bitrate=N/A speed=13.8x    frame= 3247 fps=331 q=-0.0 size=N/A time=00:02:15.42 bitrate=N/A speed=13.8x    frame= 3420 fps=331 q=-0.0 size=N/A time=00:02:22.64 bitrate=N/A speed=13.8x    frame= 3569 fps=329 q=-0.0 size=N/A time=00:02:28.85 bitrate=N/A speed=13.7x    frame= 3689 fps=325 q=-0.0 size=N/A time=00:02:33.86 bitrate=N/A speed=13.5x    frame= 3846 fps=324 q=-0.0 size=N/A time=00:02:40.41 bitrate=N/A speed=13.5x    frame= 3983 fps=321 q=-0.0 size=N/A time=00:02:46.12 bitrate=N/A speed=13.4x    frame= 4135 fps=320 q=-0.0 size=N/A time=00:02:52.46 bitrate=N/A speed=13.3x    frame= 4312 fps=321 q=-0.0 size=N/A time=00:02:59.84 bitrate=N/A speed=13.4x    frame= 4510 fps=323 q=-0.0 size=N/A time=00:03:08.10 bitrate=N/A speed=13.5x    frame= 4700 fps=325 q=-0.0 size=N/A time=00:03:16.02 bitrate=N/A speed=13.5x    frame= 4895 fps=327 q=-0.0 size=N/A time=00:03:24.16 bitrate=N/A speed=13.6x    frame= 5097 fps=329 q=-0.0 size=N/A time=00:03:32.58 bitrate=N/A speed=13.7x    frame= 5286 fps=330 q=-0.0 size=N/A time=00:03:40.47 bitrate=N/A speed=13.8x    frame= 5459 fps=330 q=-0.0 size=N/A time=00:03:47.68 bitrate=N/A speed=13.8x    frame= 5652 fps=332 q=-0.0 size=N/A time=00:03:55.73 bitrate=N/A speed=13.8x    frame= 5837 fps=333 q=-0.0 size=N/A time=00:04:03.45 bitrate=N/A speed=13.9x    frame= 6028 fps=333 q=-0.0 size=N/A time=00:04:11.41 bitrate=N/A speed=13.9x    frame= 6213 fps=334 q=-0.0 size=N/A time=00:04:19.13 bitrate=N/A speed=13.9x    frame= 6407 fps=335 q=-0.0 size=N/A time=00:04:27.22 bitrate=N/A speed=  14x    frame= 6599 fps=336 q=-0.0 size=N/A time=00:04:35.23 bitrate=N/A speed=  14x    frame= 6794 fps=337 q=-0.0 size=N/A time=00:04:43.36 bitrate=N/A speed=14.1x    frame= 6978 fps=338 q=-0.0 size=N/A time=00:04:51.04 bitrate=N/A speed=14.1x    frame= 7165 fps=339 q=-0.0 size=N/A time=00:04:58.84 bitrate=N/A speed=14.1x    frame= 7346 fps=339 q=-0.0 size=N/A time=00:05:06.38 bitrate=N/A speed=14.1x    frame= 7530 fps=339 q=-0.0 size=N/A time=00:05:14.06 bitrate=N/A speed=14.1x    frame= 7701 fps=339 q=-0.0 size=N/A time=00:05:21.19 bitrate=N/A speed=14.1x    frame= 7898 fps=340 q=-0.0 size=N/A time=00:05:29.41 bitrate=N/A speed=14.2x    frame= 8092 fps=341 q=-0.0 size=N/A time=00:05:37.50 bitrate=N/A speed=14.2x    frame= 8286 fps=341 q=-0.0 size=N/A time=00:05:45.59 bitrate=N/A speed=14.2x    frame= 8478 fps=342 q=-0.0 size=N/A time=00:05:53.60 bitrate=N/A speed=14.3x    frame= 8678 fps=343 q=-0.0 size=N/A time=00:06:01.94 bitrate=N/A speed=14.3x    frame= 8872 fps=344 q=-0.0 size=N/A time=00:06:10.03 bitrate=N/A speed=14.3x    frame= 9068 fps=344 q=-0.0 size=N/A time=00:06:18.21 bitrate=N/A speed=14.4x    frame= 9252 fps=345 q=-0.0 size=N/A time=00:06:25.88 bitrate=N/A speed=14.4x    frame= 9448 fps=345 q=-0.0 size=N/A time=00:06:34.06 bitrate=N/A speed=14.4x    frame= 9644 fps=346 q=-0.0 size=N/A time=00:06:42.23 bitrate=N/A speed=14.4x    frame= 9839 fps=346 q=-0.0 size=N/A time=00:06:50.36 bitrate=N/A speed=14.4x    frame=10022 fps=347 q=-0.0 size=N/A time=00:06:58.00 bitrate=N/A speed=14.5x    frame=10225 fps=347 q=-0.0 size=N/A time=00:07:06.46 bitrate=N/A speed=14.5x    frame=10418 fps=348 q=-0.0 size=N/A time=00:07:14.51 bitrate=N/A speed=14.5x    frame=10607 fps=348 q=-0.0 size=N/A time=00:07:22.40 bitrate=N/A speed=14.5x    frame=10782 fps=348 q=-0.0 size=N/A time=00:07:29.69 bitrate=N/A speed=14.5x    frame=10978 fps=349 q=-0.0 size=N/A time=00:07:37.87 bitrate=N/A speed=14.5x    frame=11172 fps=349 q=-0.0 size=N/A time=00:07:45.96 bitrate=N/A speed=14.6x    frame=11358 fps=349 q=-0.0 size=N/A time=00:07:53.72 bitrate=N/A speed=14.6x    frame=11563 fps=350 q=-0.0 size=N/A time=00:08:02.27 bitrate=N/A speed=14.6x    frame=11763 fps=350 q=-0.0 size=N/A time=00:08:10.61 bitrate=N/A speed=14.6x    frame=11948 fps=351 q=-0.0 size=N/A time=00:08:18.33 bitrate=N/A speed=14.6x    frame=12135 fps=351 q=-0.0 size=N/A time=00:08:26.13 bitrate=N/A speed=14.6x    frame=12326 fps=351 q=-0.0 size=N/A time=00:08:34.09 bitrate=N/A speed=14.6x    frame=12523 fps=351 q=-0.0 size=N/A time=00:08:42.31 bitrate=N/A speed=14.7x    frame=12721 fps=352 q=-0.0 size=N/A time=00:08:50.57 bitrate=N/A speed=14.7x    frame=12889 fps=351 q=-0.0 size=N/A time=00:08:57.57 bitrate=N/A speed=14.7x    frame=13033 fps=351 q=-0.0 size=N/A time=00:09:03.58 bitrate=N/A speed=14.6x    frame=13187 fps=350 q=-0.0 size=N/A time=00:09:10.00 bitrate=N/A speed=14.6x    frame=13379 fps=350 q=-0.0 size=N/A time=00:09:18.01 bitrate=N/A speed=14.6x    frame=13573 fps=350 q=-0.0 size=N/A time=00:09:26.10 bitrate=N/A speed=14.6x    frame=13768 fps=351 q=-0.0 size=N/A time=00:09:34.24 bitrate=N/A speed=14.6x    frame=13962 fps=351 q=-0.0 size=N/A time=00:09:42.33 bitrate=N/A speed=14.6x    frame=14147 fps=351 q=-0.0 size=N/A time=00:09:50.04 bitrate=N/A speed=14.7x    frame=14337 fps=352 q=-0.0 size=N/A time=00:09:57.97 bitrate=N/A speed=14.7x    frame=14532 fps=352 q=-0.0 size=N/A time=00:10:06.10 bitrate=N/A speed=14.7x    frame=14718 fps=352 q=-0.0 size=N/A time=00:10:13.86 bitrate=N/A speed=14.7x    frame=14919 fps=352 q=-0.0 size=N/A time=00:10:22.24 bitrate=N/A speed=14.7x    frame=15111 fps=353 q=-0.0 size=N/A time=00:10:30.25 bitrate=N/A speed=14.7x    frame=15291 fps=353 q=-0.0 size=N/A time=00:10:37.76 bitrate=N/A speed=14.7x    frame=15477 fps=353 q=-0.0 size=N/A time=00:10:45.51 bitrate=N/A speed=14.7x    frame=15665 fps=353 q=-0.0 size=N/A time=00:10:53.36 bitrate=N/A speed=14.7x    frame=15854 fps=353 q=-0.0 size=N/A time=00:11:01.24 bitrate=N/A speed=14.7x    frame=16033 fps=353 q=-0.0 size=N/A time=00:11:08.70 bitrate=N/A speed=14.7x    frame=16230 fps=353 q=-0.0 size=N/A time=00:11:16.92 bitrate=N/A speed=14.7x    frame=16426 fps=353 q=-0.0 size=N/A time=00:11:25.10 bitrate=N/A speed=14.7x    frame=16614 fps=354 q=-0.0 size=N/A time=00:11:32.94 bitrate=N/A speed=14.7x    frame=16803 fps=354 q=-0.0 size=N/A time=00:11:40.82 bitrate=N/A speed=14.8x    frame=16982 fps=354 q=-0.0 size=N/A time=00:11:48.29 bitrate=N/A speed=14.8x    frame=17179 fps=354 q=-0.0 size=N/A time=00:11:56.50 bitrate=N/A speed=14.8x    frame=17363 fps=354 q=-0.0 size=N/A time=00:12:04.18 bitrate=N/A speed=14.8x    frame=17554 fps=354 q=-0.0 size=N/A time=00:12:12.14 bitrate=N/A speed=14.8x    frame=17764 fps=355 q=-0.0 size=N/A time=00:12:20.90 bitrate=N/A speed=14.8x    frame=17945 fps=355 q=-0.0 size=N/A time=00:12:28.45 bitrate=N/A speed=14.8x    frame=18138 fps=355 q=-0.0 size=N/A time=00:12:36.50 bitrate=N/A speed=14.8x    frame=18330 fps=355 q=-0.0 size=N/A time=00:12:44.51 bitrate=N/A speed=14.8x    frame=18541 fps=356 q=-0.0 size=N/A time=00:12:53.31 bitrate=N/A speed=14.8x    frame=18723 fps=356 q=-0.0 size=N/A time=00:13:00.90 bitrate=N/A speed=14.8x    frame=18920 fps=356 q=-0.0 size=N/A time=00:13:09.12 bitrate=N/A speed=14.8x    frame=19118 fps=356 q=-0.0 size=N/A time=00:13:17.37 bitrate=N/A speed=14.9x    frame=19313 fps=356 q=-0.0 size=N/A time=00:13:25.51 bitrate=N/A speed=14.9x    frame=19514 fps=357 q=-0.0 size=N/A time=00:13:33.89 bitrate=N/A speed=14.9x    frame=19719 fps=357 q=-0.0 size=N/A time=00:13:42.44 bitrate=N/A speed=14.9x    frame=19912 fps=357 q=-0.0 size=N/A time=00:13:50.49 bitrate=N/A speed=14.9x    frame=20108 fps=357 q=-0.0 size=N/A time=00:13:58.67 bitrate=N/A speed=14.9x    frame=20307 fps=358 q=-0.0 size=N/A time=00:14:06.97 bitrate=N/A speed=14.9x    frame=20516 fps=358 q=-0.0 size=N/A time=00:14:15.68 bitrate=N/A speed=14.9x    frame=20708 fps=358 q=-0.0 size=N/A time=00:14:23.69 bitrate=N/A speed=14.9x    frame=20905 fps=358 q=-0.0 size=N/A time=00:14:31.91 bitrate=N/A speed=  15x    frame=21098 fps=359 q=-0.0 size=N/A time=00:14:39.96 bitrate=N/A speed=  15x    frame=21298 fps=359 q=-0.0 size=N/A time=00:14:48.30 bitrate=N/A speed=  15x    frame=21495 fps=359 q=-0.0 size=N/A time=00:14:56.52 bitrate=N/A speed=  15x    frame=21690 fps=359 q=-0.0 size=N/A time=00:15:04.65 bitrate=N/A speed=  15x    frame=21883 fps=359 q=-0.0 size=N/A time=00:15:12.70 bitrate=N/A speed=  15x    frame=22085 fps=359 q=-0.0 size=N/A time=00:15:21.12 bitrate=N/A speed=  15x    frame=22282 fps=360 q=-0.0 size=N/A time=00:15:29.34 bitrate=N/A speed=  15x    frame=22481 fps=360 q=-0.0 size=N/A time=00:15:37.64 bitrate=N/A speed=  15x    frame=22667 fps=360 q=-0.0 size=N/A time=00:15:45.40 bitrate=N/A speed=  15x    frame=22858 fps=360 q=-0.0 size=N/A time=00:15:53.36 bitrate=N/A speed=  15x    frame=23048 fps=360 q=-0.0 size=N/A time=00:16:01.29 bitrate=N/A speed=  15x    frame=23224 fps=360 q=-0.0 size=N/A time=00:16:08.63 bitrate=N/A speed=  15x    frame=23424 fps=360 q=-0.0 size=N/A time=00:16:16.97 bitrate=N/A speed=  15x    frame=23620 fps=360 q=-0.0 size=N/A time=00:16:25.15 bitrate=N/A speed=  15x    frame=23801 fps=360 q=-0.0 size=N/A time=00:16:32.70 bitrate=N/A speed=  15x    frame=23989 fps=360 q=-0.0 size=N/A time=00:16:40.54 bitrate=N/A speed=  15x    frame=24172 fps=360 q=-0.0 size=N/A time=00:16:48.17 bitrate=N/A speed=  15x    frame=24342 fps=360 q=-0.0 size=N/A time=00:16:55.26 bitrate=N/A speed=  15x    frame=24523 fps=360 q=-0.0 size=N/A time=00:17:02.81 bitrate=N/A speed=  15x    frame=24707 fps=360 q=-0.0 size=N/A time=00:17:10.48 bitrate=N/A speed=  15x    frame=24892 fps=360 q=-0.0 size=N/A time=00:17:18.20 bitrate=N/A speed=  15x    frame=25077 fps=360 q=-0.0 size=N/A time=00:17:25.91 bitrate=N/A speed=  15x    frame=25256 fps=360 q=-0.0 size=N/A time=00:17:33.38 bitrate=N/A speed=  15x    frame=25441 fps=360 q=-0.0 size=N/A time=00:17:41.10 bitrate=N/A speed=  15x    frame=25621 fps=360 q=-0.0 size=N/A time=00:17:48.60 bitrate=N/A speed=  15x    frame=25800 fps=360 q=-0.0 size=N/A time=00:17:56.07 bitrate=N/A speed=  15x    frame=25994 fps=360 q=-0.0 size=N/A time=00:18:04.16 bitrate=N/A speed=  15x    frame=26172 fps=360 q=-0.0 size=N/A time=00:18:11.59 bitrate=N/A speed=  15x    frame=26345 fps=359 q=-0.0 size=N/A time=00:18:18.80 bitrate=N/A speed=  15x    frame=26522 fps=359 q=-0.0 size=N/A time=00:18:26.18 bitrate=N/A speed=  15x    frame=26683 fps=359 q=-0.0 size=N/A time=00:18:32.90 bitrate=N/A speed=  15x    frame=26849 fps=359 q=-0.0 size=N/A time=00:18:39.82 bitrate=N/A speed=  15x    frame=27028 fps=359 q=-0.0 size=N/A time=00:18:47.29 bitrate=N/A speed=  15x    frame=27190 fps=358 q=-0.0 size=N/A time=00:18:54.04 bitrate=N/A speed=14.9x    frame=27364 fps=358 q=-0.0 size=N/A time=00:19:01.30 bitrate=N/A speed=14.9x    frame=27523 fps=358 q=-0.0 size=N/A time=00:19:07.93 bitrate=N/A speed=14.9x    frame=27724 fps=358 q=-0.0 size=N/A time=00:19:16.32 bitrate=N/A speed=14.9x    frame=27919 fps=358 q=-0.0 size=N/A time=00:19:24.45 bitrate=N/A speed=14.9x    frame=28104 fps=358 q=-0.0 size=N/A time=00:19:32.17 bitrate=N/A speed=14.9x    frame=28286 fps=358 q=-0.0 size=N/A time=00:19:39.76 bitrate=N/A speed=14.9x    frame=28457 fps=358 q=-0.0 size=N/A time=00:19:46.89 bitrate=N/A speed=14.9x    frame=28630 fps=358 q=-0.0 size=N/A time=00:19:54.10 bitrate=N/A speed=14.9x    frame=28807 fps=358 q=-0.0 size=N/A time=00:20:01.49 bitrate=N/A speed=14.9x    frame=28990 fps=358 q=-0.0 size=N/A time=00:20:09.12 bitrate=N/A speed=14.9x    frame=29176 fps=358 q=-0.0 size=N/A time=00:20:16.88 bitrate=N/A speed=14.9x    frame=29380 fps=358 q=-0.0 size=N/A time=00:20:25.39 bitrate=N/A speed=14.9x    frame=29572 fps=358 q=-0.0 size=N/A time=00:20:33.39 bitrate=N/A speed=14.9x    frame=29749 fps=358 q=-0.0 size=N/A time=00:20:40.78 bitrate=N/A speed=14.9x    frame=29938 fps=358 q=-0.0 size=N/A time=00:20:48.66 bitrate=N/A speed=14.9x    frame=30116 fps=358 q=-0.0 size=N/A time=00:20:56.08 bitrate=N/A speed=14.9x    frame=30310 fps=358 q=-0.0 size=N/A time=00:21:04.17 bitrate=N/A speed=14.9x    frame=30509 fps=358 q=-0.0 size=N/A time=00:21:12.47 bitrate=N/A speed=14.9x    frame=30698 fps=358 q=-0.0 size=N/A time=00:21:20.36 bitrate=N/A speed=14.9x    frame=30886 fps=358 q=-0.0 size=N/A time=00:21:28.20 bitrate=N/A speed=14.9x    frame=31085 fps=358 q=-0.0 size=N/A time=00:21:36.50 bitrate=N/A speed=14.9x    frame=31275 fps=358 q=-0.0 size=N/A time=00:21:44.42 bitrate=N/A speed=  15x    frame=31465 fps=359 q=-0.0 size=N/A time=00:21:52.35 bitrate=N/A speed=  15x    frame=31661 fps=359 q=-0.0 size=N/A time=00:22:00.52 bitrate=N/A speed=  15x    frame=31849 fps=359 q=-0.0 size=N/A time=00:22:08.36 bitrate=N/A speed=  15x    frame=32035 fps=359 q=-0.0 size=N/A time=00:22:16.12 bitrate=N/A speed=  15x    frame=32212 fps=359 q=-0.0 size=N/A time=00:22:23.50 bitrate=N/A speed=  15x    frame=32403 fps=359 q=-0.0 size=N/A time=00:22:31.47 bitrate=N/A speed=  15x    frame=32583 fps=359 q=-0.0 size=N/A time=00:22:38.98 bitrate=N/A speed=  15x    frame=32758 fps=359 q=-0.0 size=N/A time=00:22:46.28 bitrate=N/A speed=  15x    frame=32947 fps=359 q=-0.0 size=N/A time=00:22:54.16 bitrate=N/A speed=  15x    frame=33128 fps=359 q=-0.0 size=N/A time=00:23:01.71 bitrate=N/A speed=  15x    frame=33295 fps=358 q=-0.0 size=N/A time=00:23:08.67 bitrate=N/A speed=14.9x    frame=33471 fps=358 q=-0.0 size=N/A time=00:23:16.01 bitrate=N/A speed=14.9x    frame=33655 fps=358 q=-0.0 size=N/A time=00:23:23.69 bitrate=N/A speed=14.9x    frame=33843 fps=358 q=-0.0 size=N/A time=00:23:31.53 bitrate=N/A speed=14.9x    frame=34005 fps=358 q=-0.0 size=N/A time=00:23:38.29 bitrate=N/A speed=14.9x    frame=34193 fps=358 q=-0.0 size=N/A time=00:23:46.13 bitrate=N/A speed=14.9x    [Parsed_ssim_16 @ 000002124daa4680] SSIM Y:0.994404 (22.521175) U:0.995066 (23.067729) V:0.994867 (22.895946) All:0.994591 (22.669102)
[out#0/null @ 000002124d30ae00] video:14725KiB audio:268020KiB subtitle:0KiB other streams:0KiB global headers:0KiB muxing overhead: unknown
frame=34270 fps=358 q=-0.0 Lsize=N/A time=00:23:49.34 bitrate=N/A speed=14.9x    
